<svg xmlns="http://www.w3.org/2000/svg" xmlns:xlink="http://www.w3.org/1999/xlink" viewBox="-3219 -6178 300 300"><defs><style>.a{clip-path:url(#b);}.b{fill:#fff;}.c{fill:#6188ff;}</style><clipPath id="b"><rect x="-3219" y="-6178" width="300" height="300"/></clipPath></defs><g id="a" class="a"><rect class="c" x="-3219" y="-6178" width="300" height="300"/><path class="b" d="M106.624,49.071l8.167,10.864,16.333-32.592c.06-.06-.06-.06,0,0L177.4,122.4c.06.06.12,0,0,0H136.568c-.06,0,.06.06,0,0L79.4,5.614C77.965,2.747,74.468.242,71.236.182h0c-3.233,0-6.73,2.565-8.167,5.432L.458,125.119c-1.676,3.225.028,8.176,2.722,10.864C4.8,137.6,6.29,138.7,8.625,138.7H71.236c3.233,0,4.008-2.565,5.444-5.432l10.889-21.728c4.191-8.362,2.722-21.728,2.722-21.728l-2.722-16.3c-.06-.06.06-.06,0,0L65.791,122.4c0,.06.06,0,0,0H22.236c-.06,0-.06.06,0,0l49-95.06c.06-.06-.06-.06,0,0l51.722,105.924c1.437,2.927,4.934,5.432,8.167,5.432h59.888c2.275,0,3.828-1.1,5.444-2.716,2.694-2.628,4.279-7.639,2.722-10.864L139.291,5.614c-1.437-2.867-4.934-5.372-8.167-5.432-3.293,0-6.349,2.565-7.786,5.432L106.624,38.206S103.631,43.695,106.624,49.071Z" transform="translate(-3168.793 -6101.076)"/></g></svg>